<svg width="720" height="160" viewBox="0 0 720 160" fill="none" xmlns="http://www.w3.org/2000/svg">
  <rect width="720" height="160" rx="28" fill="transparent"/>

  <rect x="18" y="22" width="116" height="116" rx="28" fill="#11110F"/>
  <path d="M50 103C39.5 99.5 32 89.7 32 78.1C32 64.3 42.8 52.9 56.4 51.8C60.9 43.1 70 37.2 80.5 37.2C91.4 37.2 100.7 43.5 105 52.6C117.8 55.5 127.4 66.9 127.4 80.6C127.4 93.1 119.4 103.7 108.3 107.6" stroke="#D8BC70" stroke-width="6.5" stroke-linecap="round" stroke-linejoin="round"/>
  <path d="M79 43L61 78H80L70 116L103 70H84L94 43H79Z" fill="#D8BC70"/>
  <path d="M48 74C56.5 72.8 64.2 76.2 69.2 82.7" stroke="#D8BC70" stroke-width="5" stroke-linecap="round"/>
  <path d="M109 74C100.5 72.8 92.8 76.2 87.8 82.7" stroke="#D8BC70" stroke-width="5" stroke-linecap="round"/>
  <path d="M52 91C58.3 95.3 65.5 96.6 74.2 94.1" stroke="#D8BC70" stroke-width="4.5" stroke-linecap="round"/>
  <path d="M104 91C97.7 95.3 90.5 96.6 81.8 94.1" stroke="#D8BC70" stroke-width="4.5" stroke-linecap="round"/>

  <text x="166" y="76" font-family="Arial, Helvetica, sans-serif" font-size="42" font-weight="800" letter-spacing="12" fill="#11110F">VOXARISK</text>
  <text x="170" y="112" font-family="Arial, Helvetica, sans-serif" font-size="14" font-weight="700" letter-spacing="8" fill="#8A6A34">CONTRACT RISK INTELLIGENCE</text>
</svg>
